{"title":"Red 2 2013 Cam MP3 Xvid - SSRG","uid":8773199,"size":692613817,"categoryP":"video","categoryS":"movies","magnet":"?xt=urn:btih:78cc120ce984e5042ad07085d7297292f8f47977&amp;dn=Red+2+2013+Cam+MP3+Xvid+-+SSRG&amp;tr=udp%3A%2F%2Ftracker.openbittorrent.com%3A80&amp;tr=udp%3A%2F%2Fopen.demonii.com%3A1337&amp;tr=udp%3A%2F%2Ftracker.coppersurfer.tk%3A6969&amp;tr=udp%3A%2F%2Fexodus.desync.com%3A6969","seeders":2,"leechers":0,"uploader":"AliBaloch","files":-1,"time":1375498279,"description":" &lt;a href=&quot;http://i874.photobucket.com/albums/ab306/worldwide7477/Custom%20Covers/SSRG-Movie-Cover_zps93c917e7.png&quot; rel=&quot;nofollow&quot; target=&quot;_NEW&quot;&gt;http://i874.photobucket.com/albums/ab306/worldwide7477/Custom%20Covers/SSRG-Movie-Cover_zps93c917e7.png&lt;/a&gt;\n\nRed 2 2013 Cam MP3 Xvid - SSRG\n\nFormat                                   : Matroska\nFile size                                : 648 MiB\nDuration                                 : 1h 45mn\nOverall bit rate                         : 861 Kbps\nMovie name                               : Red 2 2013 Cam MP3 Xvid - SSRG  - Encoder Worldwide 7477\n\nVideo\nFormat                                   : MPEG-4 Visual\nCodec ID                                 : V_MS/VFW/FOURCC / XVID\nCodec ID/Hint                            : XviD\nDuration                                 : 1h 45mn\nBit rate                                 : 715 Kbps\nWidth                                    : 640 pixels\nHeight                                   : 260 pixels\nDisplay aspect ratio                     : 2.462\nFrame rate mode                          : Constant\nFrame rate                               : 29.970 fps\nChroma subsampling                       : 4:2:0\nBit depth                                : 8 bits\nStream size                              : 539 MiB (83%)\nTitle                                    : Red 2 2013 Cam AC3 Xvid - SSRG\nWriting library                          : XviD 64\nLanguage                                 : English\nDefault                                  : Yes\nForced                                   : No\n\nAudio\nFormat                                   : MPEG Audio\nFormat profile                           : Layer 3\nCodec ID                                 : A_MPEG/L3\nCodec ID/Hint                            : MP3\nDuration                                 : 1h 45mn\nBit rate mode                            : Constant\nBit rate                                 : 128 Kbps\nChannel(s)                               : 1 channel\nSampling rate                            : 48.0 KHz\nCompression mode                         : Lossy\nStream size                              : 96.4 MiB (15%)\nTitle                                    : Worldwide7477\nLanguage                                 : English\nDefault                                  : Yes\nForced                                   : No\n &lt;a href=&quot;\nhttp://img842.imageshack.us/img842/1245/871a.png&quot; rel=&quot;nofollow&quot; target=&quot;_NEW&quot;&gt;\nhttp://img842.imageshack.us/img842/1245/871a.png&lt;/a&gt;\n &lt;a href=&quot;\nhttp://img694.imageshack.us/img694/5152/ti4c.png&quot; rel=&quot;nofollow&quot; target=&quot;_NEW&quot;&gt;\nhttp://img694.imageshack.us/img694/5152/ti4c.png&lt;/a&gt;\n &lt;a href=&quot;\nhttp://img827.imageshack.us/img827/3541/qaj2.png&quot; rel=&quot;nofollow&quot; target=&quot;_NEW&quot;&gt;\nhttp://img827.imageshack.us/img827/3541/qaj2.png&lt;/a&gt;\n &lt;a href=&quot;\nhttp://img708.imageshack.us/img708/7408/i84r.png&quot; rel=&quot;nofollow&quot; target=&quot;_NEW&quot;&gt;\nhttp://img708.imageshack.us/img708/7408/i84r.png&lt;/a&gt;\n &lt;a href=&quot;\nhttp://img585.imageshack.us/img585/8838/iccx.png&quot; rel=&quot;nofollow&quot; target=&quot;_NEW&quot;&gt;\nhttp://img585.imageshack.us/img585/8838/iccx.png&lt;/a&gt;\n\n\n","torrent":{"xt":"urn:btih:78cc120ce984e5042ad07085d7297292f8f47977","amp;dn":"Red+2+2013+Cam+MP3+Xvid+-+SSRG","amp;tr":["udp%3A%2F%2Ftracker.openbittorrent.com%3A80","udp%3A%2F%2Fopen.demonii.com%3A1337","udp%3A%2F%2Ftracker.coppersurfer.tk%3A6969","udp%3A%2F%2Fexodus.desync.com%3A6969"],"infoHash":"78cc120ce984e5042ad07085d7297292f8f47977","infoHashBuffer":{"type":"Buffer","data":[120,204,18,12,233,132,229,4,42,208,112,133,215,41,114,146,248,244,121,119]},"announce":[],"urlList":[]}}